<?xml version="1.0" encoding="UTF-8" standalone="no"?> <svg height="512" viewBox="0 0 64 64" width="512" xmlns="http://www.w3.org/2000/svg"><path d="m35 31a1 1 0 0 0 1-1v-1a4 4 0 0 0 -2.69-3.76 3.93 3.93 0 0 0 .69-2.24 4 4 0 0 0 -4-4 3.71 3.71 0 0 0 -.93.12 5 5 0 1 0 -8 6 4 4 0 0 0 -3.07 3.88v3a1 1 0 0 0 2 0v-3a2 2 0 0 1 2-2h6a2 2 0 0 1 2 2v3a1 1 0 0 0 2 0v-3a3.91 3.91 0 0 0 -.56-2h.56a2 2 0 0 1 2 2v1a1 1 0 0 0 1 1zm-3-8a2 2 0 0 1 -2 2 2 2 0 0 1 -.86-.2 5 5 0 0 0 .86-2.8 5.15 5.15 0 0 0 -.1-1 2 2 0 0 1 2.1 2zm-7-4a3 3 0 0 1 2.74 1.79 3.07 3.07 0 0 1 .26 1.21 3 3 0 0 1 -.92 2.15 3 3 0 1 1 -2.08-5.15z"/><path d="m44 23a1 1 0 0 0 0-2h-4a1 1 0 0 0 -1 1v8a1 1 0 0 0 1 1h4a1 1 0 0 0 1-1v-4a1 1 0 0 0 -1-1h-3v-2zm-1 6h-2v-2h2z"/><path d="m49 25a1 1 0 0 0 1-1v-8a3 3 0 0 0 -3-3h-30a3 3 0 0 0 -3 3v18a3 3 0 0 0 3 3h22.59l5.7 5.71a1 1 0 0 0 .71.29.84.84 0 0 0 .38-.08 1 1 0 0 0 .62-.92v-5a3 3 0 0 0 3-3v-6a1 1 0 0 0 -2 0v6a1 1 0 0 1 -1 1h-1a1 1 0 0 0 -1 1v3.59l-4.29-4.3a1 1 0 0 0 -.71-.29h-23a1 1 0 0 1 -1-1v-18a1 1 0 0 1 1-1h30a1 1 0 0 1 1 1v8a1 1 0 0 0 1 1z"/><path d="m61 45h-52v-12a1 1 0 0 0 -2 0v12h-4a1 1 0 0 0 -1 1v2a7 7 0 0 0 7 7h31a1 1 0 0 0 0-2h-31a5 5 0 0 1 -5-5v-1h56v1a5 5 0 0 1 -5 5h-11a1 1 0 0 0 0 2h11a7 7 0 0 0 7-7v-2a1 1 0 0 0 -1-1z"/><path d="m8 30a1 1 0 0 0 1-1v-15a3 3 0 0 1 3-3h40a3 3 0 0 1 3 3v28a1 1 0 0 0 2 0v-28a5 5 0 0 0 -5-5h-40a5 5 0 0 0 -5 5v15a1 1 0 0 0 1 1z"/><circle cx="11" cy="50" r="1"/><circle cx="15" cy="50" r="1"/><circle cx="49" cy="50" r="1"/><circle cx="53" cy="50" r="1"/><path d="m24 49a1 1 0 0 0 0 2h16a1 1 0 0 0 0-2z"/><path d="m17 40a1 1 0 0 0 0 2h11a1 1 0 0 0 0-2z"/><path d="m33 40a1 1 0 0 0 0 2h4a1 1 0 0 0 0-2z"/></svg>